<?xml version="1.0" encoding="utf-8"?>
<!-- Generator: Adobe Illustrator 28.1.0, SVG Export Plug-In . SVG Version: 6.00 Build 0)  -->
<svg version="1.1"
	 id="svg1989" xmlns:cc="http://creativecommons.org/ns#" xmlns:inkscape="http://www.inkscape.org/namespaces/inkscape" xmlns:dc="http://purl.org/dc/elements/1.1/" xmlns:sodipodi="http://sodipodi.sourceforge.net/DTD/sodipodi-0.dtd" xmlns:svg="http://www.w3.org/2000/svg" xmlns:rdf="http://www.w3.org/1999/02/22-rdf-syntax-ns#" inkscape:version="0.92.4 (5da689c313, 2019-01-14)"
	 xmlns="http://www.w3.org/2000/svg" xmlns:xlink="http://www.w3.org/1999/xlink" x="0px" y="0px" viewBox="0 0 64 64"
	 style="enable-background:new 0 0 64 64;" xml:space="preserve">
<style type="text/css">
	.st0{fill:#FFFFEB;}
	.st1{fill:#FFB570;}
	.st2{fill:#E36956;}
	.st3{fill:#57294B;}
	.st4{fill:#2954A1;}
	.st5{fill:#4CF63B;stroke:#118520;stroke-width:2;stroke-miterlimit:15.1181;}
</style>
<sodipodi:namedview  bordercolor="#666666" borderopacity="1.0" id="base" inkscape:current-layer="layer1" inkscape:cx="-7.0836733" inkscape:cy="8.7520086" inkscape:document-units="px" inkscape:pageopacity="0.0" inkscape:pageshadow="2" inkscape:window-height="1017" inkscape:window-maximized="1" inkscape:window-width="1920" inkscape:window-x="1912" inkscape:window-y="-8" inkscape:zoom="5.6" pagecolor="#ffffff" showgrid="false" units="px">
	</sodipodi:namedview>
<g id="layer1" transform="translate(0,-280.06665)" inkscape:groupmode="layer" inkscape:label="Layer 1">
	<g id="layer1-6" transform="matrix(0.04951747,0,0,0.04951747,0.48259707,241.77852)" inkscape:label="Layer 1">
		<g id="g2838" transform="matrix(0.95630727,0,0,0.98274056,394.96074,-139.67572)">
			<path id="rect2830" inkscape:connector-curvature="0" class="st0" d="M-122.8,1575.2h108.7c145.1,0,261.8,116.8,261.8,261.8v53.2
				c0,145.1-116.8,261.8-261.8,261.8h-108.7c-145.1,0-261.8-116.8-261.8-261.8V1837C-384.7,1691.9-267.9,1575.2-122.8,1575.2
				L-122.8,1575.2z"/>
			<path id="rect2832" inkscape:connector-curvature="0" class="st1" d="M-116.7,1607.6h96.4c128.7,0,232.4,103.6,232.4,232.4v47.2
				c0,128.7-103.6,232.4-232.4,232.4h-96.4c-128.7,0-232.4-103.6-232.4-232.4V1840C-349.1,1711.3-245.5,1607.6-116.7,1607.6z"/>
			<path id="rect2834" inkscape:connector-curvature="0" class="st2" d="M-105.1,1669.5h73.1c97.6,0,176.2,78.6,176.2,176.2v35.8
				c0,97.6-78.6,176.2-176.2,176.2h-73.1c-97.6,0-176.2-78.6-176.2-176.2v-35.8C-281.2,1748.1-202.7,1669.5-105.1,1669.5z"/>
			<path id="rect2836" inkscape:connector-curvature="0" class="st3" d="M-93.9,1728.7h50.8c67.8,0,122.4,54.6,122.4,122.4v24.9
				c0,67.8-54.6,122.4-122.4,122.4h-50.8c-67.8,0-122.4-54.6-122.4-122.4v-24.9C-216.3,1783.3-161.7,1728.7-93.9,1728.7z"/>
		</g>
	</g>
	<g id="layer1-8" transform="matrix(0.0501135,0.06806889,-0.06806889,0.0501135,79.59096,232.35181)" inkscape:label="Layer 1">
		
			<path id="path2602" inkscape:connector-curvature="0" inkscape:transform-center-x="-1.0364481" inkscape:transform-center-y="-2.0476536" sodipodi:nodetypes="sscscss" class="st4" d="
			M573.4,1049.2c-5.4,10-23.5,17.6-47.9,22.6c-24.5,5-55.3-38.2-86.1-38.2c-30.8,0-61.7,43.2-86.1,38.2c-24.5-5-42.6-12.5-47.9-22.6
			c-21.5-40.1,91.2-250.7,134.1-250.7S594.9,1009.1,573.4,1049.2z"/>
	</g>
	<path id="path2623" inkscape:connector-curvature="0" class="st4" d="M57,285.2c-0.7,0-1.4,1.2-2.7,3.5c-2.2,3.9-2.6,4.5,0.4,4.6
		v6.5c0,0.4,0.3,0.7,0.6,0.7h3.5c0.3,0,0.6-0.3,0.6-0.7v-6.5c3-0.1,2.6-0.8,0.4-4.6C58.4,286.4,57.7,285.2,57,285.2L57,285.2z"/>
	<path id="rect2645" class="st5" d="M21.9,289.2H49c0.5,0,0.8,0.4,0.8,1v5.6c0,0.5-0.4,1-0.8,1H21.9c-0.5,0-0.8-0.4-0.8-1v-5.6
		C21.1,289.6,21.4,289.2,21.9,289.2z"/>
</g>
</svg>
