<?xml version="1.0" encoding="utf-8"?>
<!-- Generator: Adobe Illustrator 28.1.0, SVG Export Plug-In . SVG Version: 6.00 Build 0)  -->
<svg version="1.1"
	 id="svg1989" xmlns:cc="http://creativecommons.org/ns#" xmlns:inkscape="http://www.inkscape.org/namespaces/inkscape" xmlns:dc="http://purl.org/dc/elements/1.1/" xmlns:sodipodi="http://sodipodi.sourceforge.net/DTD/sodipodi-0.dtd" xmlns:svg="http://www.w3.org/2000/svg" xmlns:rdf="http://www.w3.org/1999/02/22-rdf-syntax-ns#" inkscape:version="0.92.4 (5da689c313, 2019-01-14)"
	 xmlns="http://www.w3.org/2000/svg" xmlns:xlink="http://www.w3.org/1999/xlink" x="0px" y="0px" viewBox="0 0 64 64"
	 style="enable-background:new 0 0 64 64;" xml:space="preserve">
<style type="text/css">
	.st0{fill:#2954A1;}
	.st1{fill:#F63B3B;stroke:#851111;stroke-width:2;stroke-miterlimit:15.1181;}
</style>
<sodipodi:namedview  bordercolor="#666666" borderopacity="1.0" id="base" inkscape:current-layer="layer1" inkscape:cx="-7.0836733" inkscape:cy="8.7520086" inkscape:document-units="px" inkscape:pageopacity="0.0" inkscape:pageshadow="2" inkscape:window-height="1017" inkscape:window-maximized="1" inkscape:window-width="1920" inkscape:window-x="1912" inkscape:window-y="-8" inkscape:zoom="5.6" pagecolor="#ffffff" showgrid="false" units="px">
	</sodipodi:namedview>
<g id="layer1" transform="translate(0,-280.06665)" inkscape:groupmode="layer" inkscape:label="Layer 1">
	<g id="layer1-8" transform="matrix(0.07378222,0.10021798,-0.10021798,0.07378222,111.79169,207.43719)" inkscape:label="Layer 1">
		
			<path id="path2602" inkscape:connector-curvature="0" inkscape:transform-center-x="-1.0364481" inkscape:transform-center-y="-2.0476536" sodipodi:nodetypes="sscscss" class="st0" d="
			M459.2,1114.7c-5.4,10-23.5,17.6-47.9,22.6c-24.5,5-55.3-38.2-86.1-38.2c-30.8,0-61.7,43.2-86.1,38.2c-24.5-5-42.6-12.5-47.9-22.6
			c-21.5-40.1,91.2-250.7,134.1-250.7S480.7,1074.6,459.2,1114.7z"/>
	</g>
	<path id="path2623" inkscape:connector-curvature="0" class="st0" d="M57,285.2c-0.7,0-1.4,1.2-2.7,3.5c-2.2,3.9-2.6,4.5,0.4,4.6
		v6.5c0,0.4,0.3,0.7,0.6,0.7h3.5c0.3,0,0.6-0.3,0.6-0.7v-6.5c3-0.1,2.6-0.8,0.4-4.6C58.4,286.4,57.7,285.2,57,285.2L57,285.2z"/>
	<path id="rect2645" class="st1" d="M18.3,289.2h27.1c0.5,0,0.8,0.4,0.8,1v5.6c0,0.5-0.4,1-0.8,1H18.3c-0.5,0-0.8-0.4-0.8-1v-5.6
		C17.4,289.6,17.8,289.2,18.3,289.2z"/>
</g>
</svg>
