<?xml version="1.0" encoding="utf-8"?>
<!-- Generator: Adobe Illustrator 28.1.0, SVG Export Plug-In . SVG Version: 6.00 Build 0)  -->
<svg version="1.1"
	 id="svg1989" xmlns:cc="http://creativecommons.org/ns#" xmlns:inkscape="http://www.inkscape.org/namespaces/inkscape" xmlns:dc="http://purl.org/dc/elements/1.1/" xmlns:sodipodi="http://sodipodi.sourceforge.net/DTD/sodipodi-0.dtd" xmlns:svg="http://www.w3.org/2000/svg" xmlns:rdf="http://www.w3.org/1999/02/22-rdf-syntax-ns#" inkscape:version="0.92.4 (5da689c313, 2019-01-14)"
	 xmlns="http://www.w3.org/2000/svg" xmlns:xlink="http://www.w3.org/1999/xlink" x="0px" y="0px" viewBox="0 0 64 64"
	 style="enable-background:new 0 0 64 64;" xml:space="preserve">
<style type="text/css">
	.st0{fill:#4233C7;}
	.st1{fill:#2954A1;}
</style>
<sodipodi:namedview  bordercolor="#666666" borderopacity="1.0" id="base" inkscape:current-layer="layer1" inkscape:cx="36.996478" inkscape:cy="22.352881" inkscape:document-units="px" inkscape:pageopacity="0.0" inkscape:pageshadow="2" inkscape:window-height="1017" inkscape:window-maximized="1" inkscape:window-width="1920" inkscape:window-x="1912" inkscape:window-y="-8" inkscape:zoom="7.9195959" pagecolor="#ffffff" showgrid="false" units="px">
	</sodipodi:namedview>
<g id="layer1" transform="translate(0,-280.06665)" inkscape:groupmode="layer" inkscape:label="Layer 1">
	<path id="rect2541" class="st0" d="M22.4,303.6l0.1,0.1c0.3,0.3,0.2,1-0.3,1.5L4.9,322.5c-0.5,0.5-1.2,0.7-1.5,0.3l-0.1-0.1
		c-0.3-0.3-0.2-1,0.3-1.5l17.3-17.3C21.4,303.4,22.1,303.3,22.4,303.6z"/>
	<path id="rect2549" class="st0" d="M31.5,312.7l0.1,0.1c0.3,0.3,0.2,1-0.3,1.5l-17.3,17.3c-0.5,0.5-1.2,0.7-1.5,0.3l-0.1-0.1
		c-0.3-0.3-0.2-1,0.3-1.5L30,313.1C30.5,312.6,31.2,312.4,31.5,312.7z"/>
	<path id="rect2551" class="st0" d="M39.9,321.1l0.1,0.1c0.3,0.3,0.2,1-0.3,1.5L22.4,340c-0.5,0.5-1.2,0.7-1.5,0.3l-0.1-0.1
		c-0.3-0.3-0.2-1,0.3-1.5l17.3-17.3C38.9,320.9,39.6,320.8,39.9,321.1z"/>
	<path id="rect2553" class="st0" d="M33,319.3L33,319.3c0.3,0.3,0.2,0.8-0.2,1.2l-12.7,12.7c-0.4,0.4-0.9,0.5-1.1,0.2l-0.1-0.1
		c-0.2-0.2-0.1-0.7,0.2-1.1l12.7-12.7C32.3,319.2,32.8,319.1,33,319.3z"/>
	<path id="rect2555" class="st0" d="M24.5,310.8L24.5,310.8c0.3,0.3,0.2,0.8-0.2,1.2l-12.7,12.7c-0.4,0.4-0.9,0.5-1.1,0.2l-0.1-0.1
		c-0.2-0.2-0.1-0.7,0.2-1.1L23.4,311C23.7,310.7,24.2,310.5,24.5,310.8z"/>
	<g id="layer1-8" transform="matrix(0.0765448,0.0765448,-0.0765448,0.0765448,89.48122,201.56222)" inkscape:label="Layer 1">
		
			<path id="path2602" inkscape:connector-curvature="0" inkscape:transform-center-x="-1.0364481" inkscape:transform-center-y="-2.0476536" sodipodi:nodetypes="sscscss" class="st1" d="
			M484.5,1037.1c-5.4,10-23.5,17.6-47.9,22.6c-24.5,5-55.3-38.2-86.1-38.2c-30.8,0-61.7,43.2-86.1,38.2c-24.5-5-42.6-12.5-47.9-22.6
			C195,997,307.6,786.4,350.5,786.4S506,997,484.5,1037.1z"/>
	</g>
</g>
</svg>
