<?xml version="1.0" encoding="utf-8"?>
<!-- Generator: Adobe Illustrator 28.1.0, SVG Export Plug-In . SVG Version: 6.00 Build 0)  -->
<svg version="1.1"
	 id="svg1375" xmlns:cc="http://creativecommons.org/ns#" xmlns:inkscape="http://www.inkscape.org/namespaces/inkscape" xmlns:dc="http://purl.org/dc/elements/1.1/" xmlns:sodipodi="http://sodipodi.sourceforge.net/DTD/sodipodi-0.dtd" xmlns:svg="http://www.w3.org/2000/svg" xmlns:rdf="http://www.w3.org/1999/02/22-rdf-syntax-ns#" inkscape:version="0.92.4 (5da689c313, 2019-01-14)"
	 xmlns="http://www.w3.org/2000/svg" xmlns:xlink="http://www.w3.org/1999/xlink" x="0px" y="0px" viewBox="0 0 64 64"
	 style="enable-background:new 0 0 64 64;" xml:space="preserve">
<style type="text/css">
	.st0{fill:#2954A1;}
</style>
<sodipodi:namedview  bordercolor="#666666" borderopacity="1.0" id="base" inkscape:current-layer="layer1-5" inkscape:cx="-10.462364" inkscape:cy="23.259028" inkscape:document-units="px" inkscape:pageopacity="0.0" inkscape:pageshadow="2" inkscape:window-height="1017" inkscape:window-maximized="1" inkscape:window-width="1920" inkscape:window-x="1912" inkscape:window-y="-8" inkscape:zoom="5.5625" pagecolor="#ffffff" showgrid="false" units="px">
	</sodipodi:namedview>
<g id="layer1" transform="translate(0,-280.06665)" inkscape:groupmode="layer" inkscape:label="Layer 1">
	<g id="layer1-2" transform="matrix(0.07051144,0.06648794,-0.06648794,0.07051144,73.720851,213.96649)" inkscape:label="Layer 1">
		
			<path id="path2602" inkscape:connector-curvature="0" inkscape:transform-center-x="-1.0364481" inkscape:transform-center-y="-2.0476536" sodipodi:nodetypes="sscscss" class="st0" d="
			M523,1257.3c-5.4,10-23.5,17.6-47.9,22.6c-24.5,5-55.3-38.2-86.1-38.2c-30.8,0-61.7,43.2-86.1,38.2c-24.5-5-42.6-12.5-47.9-22.6
			c-21.5-40.1,91.2-250.7,134.1-250.7C431.8,1006.6,544.4,1217.2,523,1257.3z"/>
	</g>
	
		<g id="layer1-5" transform="matrix(0.03453908,-0.03005043,0.03005043,0.03453908,-20.825515,249.35818)" inkscape:label="Layer 1">
		<path id="rect2852" inkscape:connector-curvature="0" class="st0" d="M218.8,1740.2l165.4,0c37.1,0,67,29.9,67,67
			c0,37.1-29.9,67-67,67l-165.4,0c-37.1,0-67-29.9-67-67C151.8,1770.1,181.7,1740.2,218.8,1740.2z"/>
		<path id="path2623" inkscape:connector-curvature="0" class="st0" d="M787.9,1659.9c-11.1-9.7-39.1-0.1-94.9,19.1
			c-92.1,31.7-107.2,37.9-60.2,82.2l-92.9,106.8c-5.4,6.2-5.4,14.9-0.1,19.6l56.9,49.5c5.3,4.6,14,3.4,19.4-2.8l92.9-106.8
			c50.5,40.4,54.5,24.6,73.1-71C793.4,1698.6,799.1,1669.6,787.9,1659.9L787.9,1659.9z"/>
	</g>
</g>
</svg>
