<?xml version="1.0" encoding="utf-8"?>
<!-- Generator: Adobe Illustrator 28.1.0, SVG Export Plug-In . SVG Version: 6.00 Build 0)  -->
<svg version="1.1"
	 id="svg8" xmlns:svg="http://www.w3.org/2000/svg" xmlns:rdf="http://www.w3.org/1999/02/22-rdf-syntax-ns#" xmlns:dc="http://purl.org/dc/elements/1.1/" xmlns:sodipodi="http://sodipodi.sourceforge.net/DTD/sodipodi-0.dtd" xmlns:cc="http://creativecommons.org/ns#" xmlns:inkscape="http://www.inkscape.org/namespaces/inkscape"
	 xmlns="http://www.w3.org/2000/svg" xmlns:xlink="http://www.w3.org/1999/xlink" x="0px" y="0px" viewBox="0 0 256 256"
	 style="enable-background:new 0 0 256 256;" xml:space="preserve">
<style type="text/css">
	.st0{fill:#4DA6FF;}
	.st1{fill:#C2C2D1;}
	.st2{fill:#C2C2D1;stroke:#FFFFFF;stroke-width:3;stroke-linecap:round;stroke-miterlimit:15.1181;stroke-dasharray:3,6;}
</style>
<sodipodi:namedview  bordercolor="#666666" borderopacity="1.0" id="base" inkscape:current-layer="layer1" inkscape:cx="25.391624" inkscape:cy="289.56667" inkscape:document-units="px" inkscape:pageopacity="0" inkscape:pageshadow="2" inkscape:snap-center="true" inkscape:snap-object-midpoints="true" inkscape:window-height="1022" inkscape:window-maximized="1" inkscape:window-width="1920" inkscape:window-x="0" inkscape:window-y="30" inkscape:zoom="1.4" pagecolor="#322947" showgrid="false" units="px">
	</sodipodi:namedview>
<g id="layer1" transform="translate(0,-229.26666)" inkscape:groupmode="layer" inkscape:label="Layer 1">
	<circle id="path848" class="st0" cx="30" cy="257.9" r="15.3"/>
	<g id="g932" transform="rotate(-47.163064,46.119929,259.91108)">
		<g id="g878" transform="matrix(0.32646842,0.35963419,-0.35963419,0.32646842,140.13976,161.88635)">
			
				<path id="path872" inkscape:flatsided="true" inkscape:randomized="0" inkscape:rounded="0.11" inkscape:transform-center-y="-0.96997064" sodipodi:arg1="0.52359878" sodipodi:arg2="1.5707963" sodipodi:cx="-3.1655507" sodipodi:cy="224.05058" sodipodi:r1="5.1559901" sodipodi:r2="2.5779951" sodipodi:sides="3" sodipodi:type="star" class="st1" d="
				M239.6,314.2c-0.4,3.2-71.6,4.1-72.1,0.9s31.7-90.6,32.6-90.6C201,224.5,240,311,239.6,314.2z"/>
		</g>
	</g>
	<path id="path1631" inkscape:connector-curvature="0" class="st1" d="M228.7,247.8c-1.7,0-3.4,0-3.8,0.2c-0.7,0.4-3.9,5.6-4,6.5
		c0,0.4,0.8,2.2,1.7,3.8c-2.9,4.5-5.2,10.3-4.1,12.4c1.9,3.5,17.8,3.3,19.8-0.1c1.2-2-1.1-7.9-4-12.3c0.9-1.4,1.7-2.9,1.7-3.3
		c0-0.8-2.9-6.2-3.6-6.7C232.1,248,230.4,247.9,228.7,247.8z"/>
	<rect x="14.7" y="242.5" class="st0" width="30.7" height="30.7"/>
</g>
<g>
	<polygon class="st2" points="113.3,170.7 91.2,132.4 113.3,94.2 157.5,94.2 179.6,132.4 157.5,170.7 	"/>
	<polygon class="st2" points="173.7,154.5 135.4,176.6 97.1,154.5 97.1,110.4 135.4,88.3 173.7,110.4 	"/>
</g>
<polygon class="st2" points="102.6,189.2 69.9,132.4 102.6,75.7 168.2,75.7 201,132.4 168.2,189.2 "/>
<polygon class="st2" points="192.2,166.9 135.4,199.6 78.7,166.9 78.7,101.3 135.4,68.6 192.2,101.3 "/>
</svg>
